# xmcd
#
# Track frame offsets: 
#        150
#        20400
#        45375
#        47325
#
# Disc length: 898 seconds
#
# Revision: 0
# Processed by: cddbd v1.5.2PL0 Copyright (c) Steve Scherf et al.
# Submitted via: ExactAudioCopy v1.0b3
#
DISCID=22038004
DTITLE=883 - Nord Sud Ovest Est
DYEAR=1900
DGENRE=
TTITLE0=Nord Sud Ovest Est (Album Mix)
TTITLE1=Nord Sud Ovest Est (N.S.O. Xtd)
TTITLE2=Nord Sud Ovest Est (Bonus Tracks)
TTITLE3=Nord Sud Ovest Est (Piano Mix)
EXTD=
EXTT0=
EXTT1=
EXTT2=
EXTT3=
PLAYORDER=
